. 
 
http://www.torrenting.com          :     Once & For all ;)


               www . Torrenting . Com 

(((((((((((((= Enjoy No RAR releases =))))))))))))))))))))


...................................NFO:....................................

.








































          
          
              
              
                    
                    
                    
                    

The.Mortician.2011.BRRiP.XviD.AC3-SiC

Poster:
[IMG]http://img141.imageshack.us/img141/1234/themortician1.jpg[/IMG]

IMDB Link: 
http://www.imdb.com/title/tt1211353/

Description:
An introverted mortician has his life disrupted when an ex-convict is appointed as his new porter.

MediaInfo:
General
Complete name                    : The.Mortician.2011.BRRiP.XviD.AC3-SiC.avi
Format                           : AVI
Format/Info                      : Audio Video Interleave
File size                        : 1.37 GiB
Duration                         : 1h 29mn
Overall bit rate                 : 2 193 Kbps

Video
ID                               : 0
Format                           : MPEG-4 Visual
Format profile                   : Advanced Simple@L5
Format settings, BVOP            : 2
Format settings, QPel            : No
Format settings, GMC             : No warppoints
Format settings, Matrix          : Default (H.263)
Muxing mode                      : Packed bitstream
Codec ID                         : XVID
Codec ID/Hint                    : XviD
Duration                         : 1h 29mn
Bit rate                         : 1 801 Kbps
Width                            : 720 pixels
Height                           : 304 pixels
Display aspect ratio             : 2.35:1
Frame rate                       : 23.976 fps
Color space                      : YUV
Chroma subsampling               : 4:2:0
Bit depth                        : 8 bits
Scan type                        : Progressive
Compression mode                 : Lossy
Bits/(Pixel*Frame)               : 0.343
Stream size                      : 1.12 GiB (82%)
Writing library                  : XviD 1.1.2 (UTC 2006-11-01)

Audio
ID                               : 1
Format                           : AC-3
Format/Info                      : Audio Coding 3
Mode extension                   : CM (complete main)
Codec ID                         : 2000
Duration                         : 1h 29mn
Bit rate mode                    : Constant
Bit rate                         : 384 Kbps
Channel(s)                       : 6 channels
Channel positions                : Front: L C R, Side: L R, LFE
Sampling rate                    : 48.0 KHz
Bit depth                        : 16 bits
Compression mode                 : Lossy
Stream size                      : 245 MiB (18%)
Alignment                        : Aligned on interleaves
Interleave, duration             : 64 ms (1.53 video frames)
Interleave, preload duration     : 192 ms
Title                            : tm


Screenshots:
[IMG]http://img580.imageshack.us/img580/3330/scrncp00004.png[/IMG]
[IMG]http://img5.imageshack.us/img5/4738/scrncp00005.png[/IMG]
[IMG]http://img824.imageshack.us/img824/4189/scrncp00009.png[/IMG]
[IMG]http://img811.imageshack.us/img811/6588/scrncp00014.png[/IMG]
[IMG]http://img528.imageshack.us/img528/1217/scrncp00023.png[/IMG]

Note : A new film starring Method Man & Edward Furlong that actually shows some real acting potential by Method Man. Did the normal stuff, turned out nice!

Source: The.Mortician.2011.720p.BluRay.DTS.x264-DNL

Enjoy!

Respects to CaptainHomey, Cyanide, CM8, Rx, THC, ELEKTRI4KA, 
Killerhz, PA, YeFsTe, BoxSlots, MrRep and everyone in the struggle...